<svg xmlns="http://www.w3.org/2000/svg" xmlns:xlink="http://www.w3.org/1999/xlink" width="1005" zoomAndPan="magnify" viewBox="0 0 753.75 342.749987" height="457" preserveAspectRatio="xMidYMid meet" version="1.0"><defs><g/><clipPath id="002796e14d"><path d="M 0.148438 67.558594 L 93.832031 67.558594 L 93.832031 179.226562 L 0.148438 179.226562 Z M 0.148438 67.558594 " clip-rule="nonzero"/></clipPath><clipPath id="4ee7221a97"><path d="M 90.457031 141.984375 C 92.492188 136.257812 93.832031 129.75 93.832031 123.363281 C 93.832031 116.976562 92.683594 110.828125 90.644531 105.164062 C 90.582031 105.042969 90.582031 104.921875 90.519531 104.800781 C 82.367188 83.527344 60.835938 67.859375 36.789062 67.558594 L 0.148438 67.558594 L 0.148438 179.226562 L 36.761719 179.226562 C 60.964844 178.925781 82.492188 163.5 90.457031 141.984375 Z M 90.457031 141.984375 " clip-rule="nonzero"/></clipPath><clipPath id="71dfc78425"><path d="M 0.148438 170.234375 L 132.054688 170.234375 L 132.054688 281.902344 L 0.148438 281.902344 Z M 0.148438 170.234375 " clip-rule="nonzero"/></clipPath><clipPath id="64c57007c7"><path d="M 128.675781 244.660156 C 130.714844 238.933594 132.054688 232.425781 132.054688 226.039062 C 132.054688 219.648438 130.90625 213.503906 128.867188 207.839844 C 128.804688 207.71875 128.804688 207.597656 128.742188 207.476562 C 120.585938 186.203125 99.058594 170.535156 74.164062 170.234375 L 0.148438 170.234375 L 0.148438 281.902344 L 74.109375 281.902344 C 99.183594 281.601562 120.714844 266.171875 128.675781 244.660156 Z M 128.675781 244.660156 " clip-rule="nonzero"/></clipPath></defs><g clip-path="url(#002796e14d)"><g clip-path="url(#4ee7221a97)"><path stroke-linecap="butt" transform="matrix(0, -0.749453, 0.749453, 0, 0.149796, 179.227525)" fill="none" stroke-linejoin="miter" d="M 49.693757 120.497483 C 57.334743 123.213004 66.018156 125.000766 74.539993 125.000766 C 83.06183 125.000766 91.265727 123.468399 98.823319 120.747666 C 98.984895 120.664271 99.146471 120.664271 99.308048 120.580877 C 127.693322 109.703156 148.599186 80.973881 149.000521 48.887992 L 149.000521 -0.00181216 L 0.00128365 -0.00181216 L 0.00128365 48.851507 C 0.402618 81.145882 20.98533 109.869945 49.693757 120.497483 Z M 49.693757 120.497483 " stroke="#3dcfb6" stroke-width="50" stroke-opacity="1" stroke-miterlimit="4"/></g></g><g clip-path="url(#71dfc78425)"><g clip-path="url(#64c57007c7)"><path stroke-linecap="butt" transform="matrix(0, -0.749453, 0.749453, 0, 0.149796, 281.902611)" fill="none" stroke-linejoin="miter" d="M 49.69283 171.492989 C 57.333816 174.213722 66.01723 176.001484 74.539066 176.001484 C 83.066115 176.001484 91.2648 174.469117 98.822393 171.748384 C 98.983969 171.664989 99.145545 171.664989 99.307121 171.581595 C 127.692395 160.698662 148.59826 131.974599 148.999594 98.757677 L 148.999594 -0.00181251 L 0.000356997 -0.00181251 L 0.000356997 98.684708 C 0.401691 132.141387 20.989615 160.870663 49.69283 171.492989 Z M 49.69283 171.492989 " stroke="#3dcfb6" stroke-width="52" stroke-opacity="1" stroke-miterlimit="4"/></g></g><g fill="#ffffff" fill-opacity="1"><g transform="translate(128.679323, 167.262873)"><g><path d="M 47.75 -97.484375 C 63.570312 -97.484375 75.648438 -93.394531 83.984375 -85.21875 C 92.316406 -77.039062 96.484375 -64.882812 96.484375 -48.75 C 96.484375 -32.65625 92.316406 -20.503906 83.984375 -12.296875 C 75.648438 -4.097656 63.570312 0 47.75 0 L 12.671875 0 L 12.671875 -97.484375 Z M 46.609375 -16.203125 C 56.660156 -16.203125 64.171875 -18.769531 69.140625 -23.90625 C 74.117188 -29.039062 76.609375 -37.320312 76.609375 -48.75 C 76.609375 -60.164062 74.117188 -68.441406 69.140625 -73.578125 C 64.171875 -78.710938 56.660156 -81.28125 46.609375 -81.28125 L 31.9375 -81.28125 L 31.9375 -16.203125 Z M 46.609375 -16.203125 "/></g></g></g><g fill="#ffffff" fill-opacity="1"><g transform="translate(220.057059, 167.262873)"><g><path d="M 28.671875 1.40625 C 23.960938 1.40625 19.875 0.539062 16.40625 -1.1875 C 12.9375 -2.925781 10.265625 -5.472656 8.390625 -8.828125 C 6.523438 -12.191406 5.59375 -16.226562 5.59375 -20.9375 C 5.59375 -25.289062 6.523438 -28.945312 8.390625 -31.90625 C 10.265625 -34.863281 13.15625 -37.285156 17.0625 -39.171875 C 20.976562 -41.066406 26.09375 -42.523438 32.40625 -43.546875 C 36.8125 -44.253906 40.15625 -45.03125 42.4375 -45.875 C 44.726562 -46.71875 46.273438 -47.671875 47.078125 -48.734375 C 47.878906 -49.804688 48.28125 -51.164062 48.28125 -52.8125 C 48.28125 -55.164062 47.457031 -56.960938 45.8125 -58.203125 C 44.164062 -59.453125 41.429688 -60.078125 37.609375 -60.078125 C 33.515625 -60.078125 29.625 -59.164062 25.9375 -57.34375 C 22.25 -55.519531 19.050781 -53.117188 16.34375 -50.140625 L 15 -50.140625 L 7.265625 -61.8125 C 11.003906 -65.945312 15.5625 -69.171875 20.9375 -71.484375 C 26.3125 -73.796875 32.179688 -74.953125 38.546875 -74.953125 C 48.273438 -74.953125 55.316406 -72.882812 59.671875 -68.75 C 64.035156 -64.613281 66.21875 -58.742188 66.21875 -51.140625 L 66.21875 -19.203125 C 66.21875 -15.910156 67.660156 -14.265625 70.546875 -14.265625 C 71.660156 -14.265625 72.75 -14.46875 73.8125 -14.875 L 74.75 -14.609375 L 76.078125 -1.734375 C 75.054688 -1.066406 73.632812 -0.519531 71.8125 -0.09375 C 69.988281 0.320312 67.988281 0.53125 65.8125 0.53125 C 61.414062 0.53125 57.984375 -0.3125 55.515625 -2 C 53.046875 -3.6875 51.273438 -6.332031 50.203125 -9.9375 L 48.8125 -10.0625 C 45.207031 -2.414062 38.492188 1.40625 28.671875 1.40625 Z M 34.546875 -12.40625 C 38.804688 -12.40625 42.210938 -13.835938 44.765625 -16.703125 C 47.328125 -19.566406 48.609375 -23.554688 48.609375 -28.671875 L 48.609375 -36.140625 L 47.34375 -36.40625 C 46.226562 -35.519531 44.769531 -34.773438 42.96875 -34.171875 C 41.175781 -33.578125 38.585938 -32.988281 35.203125 -32.40625 C 31.203125 -31.738281 28.320312 -30.59375 26.5625 -28.96875 C 24.8125 -27.34375 23.9375 -25.046875 23.9375 -22.078125 C 23.9375 -18.921875 24.867188 -16.519531 26.734375 -14.875 C 28.609375 -13.226562 31.210938 -12.40625 34.546875 -12.40625 Z M 34.546875 -12.40625 "/></g></g></g><g fill="#ffffff" fill-opacity="1"><g transform="translate(284.764339, 167.262873)"><g><path d="M 10.609375 0 L 10.609375 -73.546875 L 28.34375 -73.546875 L 28.34375 -62.75 L 29.734375 -62.40625 C 34.316406 -70.769531 41.742188 -74.953125 52.015625 -74.953125 C 60.503906 -74.953125 66.738281 -72.640625 70.71875 -68.015625 C 74.695312 -63.390625 76.6875 -56.65625 76.6875 -47.8125 L 76.6875 0 L 58.21875 0 L 58.21875 -45.546875 C 58.21875 -50.429688 57.238281 -53.953125 55.28125 -56.109375 C 53.320312 -58.265625 50.1875 -59.34375 45.875 -59.34375 C 40.582031 -59.34375 36.457031 -57.628906 33.5 -54.203125 C 30.550781 -50.785156 29.078125 -45.410156 29.078125 -38.078125 L 29.078125 0 Z M 10.609375 0 "/></g></g></g><g fill="#ffffff" fill-opacity="1"><g transform="translate(358.072823, 167.262873)"><g><path d="M 19.796875 -82.34375 C 16.460938 -82.34375 13.75 -83.351562 11.65625 -85.375 C 9.570312 -87.40625 8.53125 -90.019531 8.53125 -93.21875 C 8.53125 -96.375 9.570312 -98.960938 11.65625 -100.984375 C 13.75 -103.003906 16.460938 -104.015625 19.796875 -104.015625 C 22.023438 -104.015625 24.003906 -103.546875 25.734375 -102.609375 C 27.472656 -101.679688 28.816406 -100.40625 29.765625 -98.78125 C 30.722656 -97.164062 31.203125 -95.3125 31.203125 -93.21875 C 31.203125 -91.125 30.722656 -89.253906 29.765625 -87.609375 C 28.816406 -85.972656 27.472656 -84.6875 25.734375 -83.75 C 24.003906 -82.8125 22.023438 -82.34375 19.796875 -82.34375 Z M 10.609375 0 L 10.609375 -73.546875 L 29.078125 -73.546875 L 29.078125 0 Z M 10.609375 0 "/></g></g></g><g fill="#ffffff" fill-opacity="1"><g transform="translate(384.841397, 167.262873)"><g><path d="M 72.6875 -32.609375 L 25.40625 -32.609375 C 25.9375 -26.203125 27.757812 -21.539062 30.875 -18.625 C 33.988281 -15.71875 38.234375 -14.265625 43.609375 -14.265625 C 47.828125 -14.265625 51.25 -15.050781 53.875 -16.625 C 56.5 -18.207031 58.613281 -20.601562 60.21875 -23.8125 L 61.609375 -23.8125 L 73.875 -15.9375 C 71.476562 -10.78125 67.859375 -6.597656 63.015625 -3.390625 C 58.171875 -0.191406 51.703125 1.40625 43.609375 1.40625 C 36.003906 1.40625 29.4375 -0.0351562 23.90625 -2.921875 C 18.375 -5.816406 14.101562 -10.117188 11.09375 -15.828125 C 8.09375 -21.546875 6.59375 -28.515625 6.59375 -36.734375 C 6.59375 -45.097656 8.171875 -52.144531 11.328125 -57.875 C 14.484375 -63.613281 18.75 -67.894531 24.125 -70.71875 C 29.507812 -73.539062 35.5625 -74.953125 42.28125 -74.953125 C 52.675781 -74.953125 60.640625 -72.191406 66.171875 -66.671875 C 71.710938 -61.160156 74.484375 -53.070312 74.484375 -42.40625 C 74.484375 -38.539062 74.347656 -35.539062 74.078125 -33.40625 Z M 56.8125 -44.546875 C 56.632812 -50.140625 55.332031 -54.210938 52.90625 -56.765625 C 50.488281 -59.328125 46.945312 -60.609375 42.28125 -60.609375 C 32.9375 -60.609375 27.445312 -55.253906 25.8125 -44.546875 Z M 56.8125 -44.546875 "/></g></g></g><g fill="#ffffff" fill-opacity="1"><g transform="translate(451.949007, 167.262873)"><g><path d="M 30.546875 1.40625 C 23.921875 1.40625 18.863281 -0.378906 15.375 -3.953125 C 11.882812 -7.535156 10.140625 -12.972656 10.140625 -20.265625 L 10.140625 -103.09375 L 28.609375 -103.09375 L 28.609375 -21 C 28.609375 -16.507812 30.472656 -14.265625 34.203125 -14.265625 C 35.273438 -14.265625 36.410156 -14.441406 37.609375 -14.796875 L 38.546875 -14.53125 L 40.203125 -0.328125 C 39.179688 0.203125 37.828125 0.625 36.140625 0.9375 C 34.453125 1.25 32.585938 1.40625 30.546875 1.40625 Z M 30.546875 1.40625 "/></g></g></g><g fill="#ffffff" fill-opacity="1"><g transform="translate(128.679323, 278.931414)"><g><path d="M 12.671875 0 L 12.671875 -97.484375 L 54.28125 -97.484375 C 60.28125 -97.484375 65.359375 -96.535156 69.515625 -94.640625 C 73.671875 -92.753906 76.816406 -90.066406 78.953125 -86.578125 C 81.085938 -83.085938 82.15625 -78.96875 82.15625 -74.21875 C 82.15625 -69.90625 81.109375 -66.101562 79.015625 -62.8125 C 76.929688 -59.519531 73.929688 -56.875 70.015625 -54.875 L 70.015625 -53.484375 C 76.148438 -51.878906 80.882812 -48.960938 84.21875 -44.734375 C 87.550781 -40.515625 89.21875 -35.335938 89.21875 -29.203125 C 89.21875 -19.867188 86.40625 -12.664062 80.78125 -7.59375 C 75.15625 -2.53125 66.8125 0 55.75 0 Z M 50.28125 -58.609375 C 59.257812 -58.609375 63.75 -62.65625 63.75 -70.75 C 63.75 -74.882812 62.632812 -77.960938 60.40625 -79.984375 C 58.1875 -82.003906 54.8125 -83.015625 50.28125 -83.015625 L 31.9375 -83.015625 L 31.9375 -58.609375 Z M 53.8125 -15.265625 C 64.4375 -15.265625 69.75 -20.085938 69.75 -29.734375 C 69.75 -39.429688 64.4375 -44.28125 53.8125 -44.28125 L 31.9375 -44.28125 L 31.9375 -15.265625 Z M 53.8125 -15.265625 "/></g></g></g><g fill="#ffffff" fill-opacity="1"><g transform="translate(211.189127, 278.931414)"><g><path d="M 33.671875 1.40625 C 25.398438 1.40625 19.296875 -0.847656 15.359375 -5.359375 C 11.429688 -9.878906 9.46875 -16.363281 9.46875 -24.8125 L 9.46875 -73.546875 L 27.9375 -73.546875 L 27.9375 -27.140625 C 27.9375 -22.648438 28.898438 -19.367188 30.828125 -17.296875 C 32.765625 -15.234375 35.757812 -14.203125 39.8125 -14.203125 C 44.925781 -14.203125 48.90625 -15.878906 51.75 -19.234375 C 54.59375 -22.585938 56.015625 -27.867188 56.015625 -35.078125 L 56.015625 -73.546875 L 74.484375 -73.546875 L 74.484375 0 L 56.75 0 L 56.75 -10.796875 L 55.34375 -11.140625 C 52.988281 -6.910156 50.109375 -3.757812 46.703125 -1.6875 C 43.304688 0.375 38.960938 1.40625 33.671875 1.40625 Z M 33.671875 1.40625 "/></g></g></g><g fill="#ffffff" fill-opacity="1"><g transform="translate(283.430805, 278.931414)"><g><path d="M 10.609375 0 L 10.609375 -73.546875 L 28.34375 -73.546875 L 28.34375 -63.6875 L 29.734375 -63.40625 C 32.140625 -67.363281 34.953125 -70.273438 38.171875 -72.140625 C 41.398438 -74.015625 45.523438 -74.953125 50.546875 -74.953125 C 56.097656 -74.953125 60.5625 -73.847656 63.9375 -71.640625 C 67.320312 -69.441406 69.789062 -66.234375 71.34375 -62.015625 L 72.75 -62.015625 C 75.019531 -66.410156 77.941406 -69.664062 81.515625 -71.78125 C 85.097656 -73.894531 89.554688 -74.953125 94.890625 -74.953125 C 110.140625 -74.953125 117.765625 -66.460938 117.765625 -49.484375 L 117.765625 0 L 99.28125 0 L 99.28125 -47.140625 C 99.28125 -51.453125 98.4375 -54.5625 96.75 -56.46875 C 95.0625 -58.382812 92.351562 -59.34375 88.625 -59.34375 C 78.488281 -59.34375 73.421875 -52.566406 73.421875 -39.015625 L 73.421875 0 L 54.9375 0 L 54.9375 -47.140625 C 54.9375 -51.453125 54.082031 -54.5625 52.375 -56.46875 C 50.664062 -58.382812 47.941406 -59.34375 44.203125 -59.34375 C 39.453125 -59.34375 35.742188 -57.753906 33.078125 -54.578125 C 30.410156 -51.398438 29.078125 -46.34375 29.078125 -39.40625 L 29.078125 0 Z M 10.609375 0 "/></g></g></g><g fill="#ffffff" fill-opacity="1"><g transform="translate(397.811802, 278.931414)"><g><path d="M 51.40625 1.40625 C 42.03125 1.40625 35.050781 -2.109375 30.46875 -9.140625 L 29.078125 -8.875 L 29.078125 0 L 10.609375 0 L 10.609375 -103.09375 L 29.078125 -103.09375 L 29.078125 -64.875 L 30.46875 -64.609375 C 33.007812 -68.117188 36 -70.71875 39.4375 -72.40625 C 42.882812 -74.101562 47.007812 -74.953125 51.8125 -74.953125 C 57.769531 -74.953125 62.96875 -73.550781 67.40625 -70.75 C 71.851562 -67.945312 75.320312 -63.6875 77.8125 -57.96875 C 80.300781 -52.257812 81.546875 -45.179688 81.546875 -36.734375 C 81.546875 -28.378906 80.253906 -21.34375 77.671875 -15.625 C 75.097656 -9.914062 71.546875 -5.648438 67.015625 -2.828125 C 62.484375 -0.00390625 57.28125 1.40625 51.40625 1.40625 Z M 45.8125 -14.265625 C 51.226562 -14.265625 55.359375 -16.078125 58.203125 -19.703125 C 61.054688 -23.328125 62.484375 -29.003906 62.484375 -36.734375 C 62.484375 -44.515625 61.054688 -50.21875 58.203125 -53.84375 C 55.359375 -57.46875 51.226562 -59.28125 45.8125 -59.28125 C 40.613281 -59.28125 36.488281 -57.410156 33.4375 -53.671875 C 30.394531 -49.941406 28.875 -44.296875 28.875 -36.734375 C 28.875 -29.179688 30.394531 -23.546875 33.4375 -19.828125 C 36.488281 -16.117188 40.613281 -14.265625 45.8125 -14.265625 Z M 45.8125 -14.265625 "/></g></g></g><g fill="#ffffff" fill-opacity="1"><g transform="translate(473.053912, 278.931414)"><g><path d="M 33.671875 1.40625 C 25.398438 1.40625 19.296875 -0.847656 15.359375 -5.359375 C 11.429688 -9.878906 9.46875 -16.363281 9.46875 -24.8125 L 9.46875 -73.546875 L 27.9375 -73.546875 L 27.9375 -27.140625 C 27.9375 -22.648438 28.898438 -19.367188 30.828125 -17.296875 C 32.765625 -15.234375 35.757812 -14.203125 39.8125 -14.203125 C 44.925781 -14.203125 48.90625 -15.878906 51.75 -19.234375 C 54.59375 -22.585938 56.015625 -27.867188 56.015625 -35.078125 L 56.015625 -73.546875 L 74.484375 -73.546875 L 74.484375 0 L 56.75 0 L 56.75 -10.796875 L 55.34375 -11.140625 C 52.988281 -6.910156 50.109375 -3.757812 46.703125 -1.6875 C 43.304688 0.375 38.960938 1.40625 33.671875 1.40625 Z M 33.671875 1.40625 "/></g></g></g><g fill="#ffffff" fill-opacity="1"><g transform="translate(545.295578, 278.931414)"><g><path d="M 42.875 1.40625 C 35.757812 1.40625 29.46875 -0.0703125 24 -3.03125 C 18.53125 -5.988281 14.257812 -10.332031 11.1875 -16.0625 C 8.125 -21.800781 6.59375 -28.691406 6.59375 -36.734375 C 6.59375 -44.828125 8.125 -51.738281 11.1875 -57.46875 C 14.257812 -63.207031 18.507812 -67.554688 23.9375 -70.515625 C 29.363281 -73.472656 35.566406 -74.953125 42.546875 -74.953125 C 58.054688 -74.953125 67.988281 -69.328125 72.34375 -58.078125 L 59.671875 -49.015625 L 58.28125 -49.015625 C 56.769531 -52.484375 54.800781 -55.0625 52.375 -56.75 C 49.957031 -58.4375 46.679688 -59.28125 42.546875 -59.28125 C 37.210938 -59.28125 33.054688 -57.429688 30.078125 -53.734375 C 27.097656 -50.046875 25.609375 -44.378906 25.609375 -36.734375 C 25.609375 -29.179688 27.117188 -23.546875 30.140625 -19.828125 C 33.160156 -16.117188 37.40625 -14.265625 42.875 -14.265625 C 46.875 -14.265625 50.265625 -15.34375 53.046875 -17.5 C 55.828125 -19.65625 57.816406 -22.757812 59.015625 -26.8125 L 60.40625 -26.9375 L 73.546875 -19.734375 C 71.679688 -13.515625 68.222656 -8.4375 63.171875 -4.5 C 58.128906 -0.5625 51.363281 1.40625 42.875 1.40625 Z M 42.875 1.40625 "/></g></g></g></svg>