<svg xmlns="http://www.w3.org/2000/svg" xmlns:xlink="http://www.w3.org/1999/xlink" width="200" zoomAndPan="magnify" viewBox="0 0 150 254.250006" height="339" preserveAspectRatio="xMidYMid meet" version="1.0"><defs><clipPath id="3b4ceea359"><path d="M 0.21875 0 L 121 0 L 121 103 L 0.21875 103 Z M 0.21875 0 " clip-rule="nonzero"/></clipPath><clipPath id="f9daf6ebda"><path d="M 42 102 L 149.777344 102 L 149.777344 209 L 42 209 Z M 42 102 " clip-rule="nonzero"/></clipPath><clipPath id="da32a8b896"><path d="M 50 157 L 149.777344 157 L 149.777344 253.503906 L 50 253.503906 Z M 50 157 " clip-rule="nonzero"/></clipPath><clipPath id="b6b5684b68"><path d="M 0.21875 18 L 102 18 L 102 100 L 0.21875 100 Z M 0.21875 18 " clip-rule="nonzero"/></clipPath><clipPath id="399585db3a"><path d="M 0.21875 48 L 102 48 L 102 142 L 0.21875 142 Z M 0.21875 48 " clip-rule="nonzero"/></clipPath><clipPath id="581742e359"><path d="M 0.21875 16 L 48 16 L 48 145 L 0.21875 145 Z M 0.21875 16 " clip-rule="nonzero"/></clipPath><clipPath id="543e7f606f"><path d="M 0.21875 236 L 79 236 L 79 241 L 0.21875 241 Z M 0.21875 236 " clip-rule="nonzero"/></clipPath></defs><path stroke-linecap="butt" transform="matrix(0, -0.747794, 0.747794, 0, 1.482991, 240.623969)" fill="none" stroke-linejoin="miter" d="M -0.00137843 3.000253 L 291.606296 3.000253 " stroke="#3dcfb6" stroke-width="6" stroke-opacity="1" stroke-miterlimit="4"/><g clip-path="url(#3b4ceea359)"><path stroke-linecap="butt" transform="matrix(0.651569, 0.366952, -0.366952, 0.651569, 14.836783, 0.00209462)" fill="none" stroke-linejoin="miter" d="M 1.701858 37.365293 C 68.196045 -8.458315 115.552771 -8.456411 143.769473 37.366452 " stroke="#3dcfb6" stroke-width="6" stroke-opacity="1" stroke-miterlimit="4"/></g><path stroke-linecap="butt" transform="matrix(-0.340678, 0.665683, -0.665683, -0.340678, 104.902677, 78.200659)" fill="none" stroke-linejoin="miter" d="M 1.499631 14.595532 C 28.356668 -0.862602 55.218385 -0.866744 82.077862 14.592517 " stroke="#3dcfb6" stroke-width="6" stroke-opacity="1" stroke-miterlimit="4"/><g clip-path="url(#f9daf6ebda)"><path stroke-linecap="butt" transform="matrix(0.57143, 0.482353, -0.482353, 0.57143, 81.554456, 109.195226)" fill="none" stroke-linejoin="miter" d="M 2.096804 30.803389 C 40.086311 -6.268054 78.078375 -6.270434 116.072372 30.803612 " stroke="#3dcfb6" stroke-width="6" stroke-opacity="1" stroke-miterlimit="4"/></g><g clip-path="url(#da32a8b896)"><path stroke-linecap="butt" transform="matrix(-0.534753, 0.522719, -0.522719, -0.534753, 147.412698, 195.427909)" fill="none" stroke-linejoin="miter" d="M 1.942306 25.548147 C 37.409337 -4.517866 72.878685 -4.515145 108.350263 25.548922 " stroke="#3dcfb6" stroke-width="6" stroke-opacity="1" stroke-miterlimit="4"/></g><g clip-path="url(#b6b5684b68)"><path stroke-linecap="butt" transform="matrix(0.659803, 0.351932, -0.351932, 0.659803, 26.694088, 29.493117)" fill="none" stroke-linejoin="miter" d="M 1.58398 21.668724 C 41.632356 -3.221191 69.930045 -3.223974 86.477356 21.672053 " stroke="#3dcfb6" stroke-width="6" stroke-opacity="1" stroke-miterlimit="4"/></g><g clip-path="url(#399585db3a)"><path stroke-linecap="butt" transform="matrix(-0.587558, 0.462571, -0.462571, -0.587558, 90.372461, 88.540138)" fill="none" stroke-linejoin="miter" d="M 2.510247 27.620521 C 24.079876 -5.207131 55.006348 -5.205425 95.292892 27.621533 " stroke="#3dcfb6" stroke-width="6" stroke-opacity="1" stroke-miterlimit="4"/></g><path stroke-linecap="butt" transform="matrix(0.648033, 0.373162, -0.373162, 0.648033, 66.791204, 132.129109)" fill="none" stroke-linejoin="miter" d="M 1.596433 21.672816 C 41.282088 -3.223121 69.324218 -3.2222 85.720217 21.671052 " stroke="#3dcfb6" stroke-width="6" stroke-opacity="1" stroke-miterlimit="4"/><path stroke-linecap="butt" transform="matrix(-0.587558, 0.462571, -0.462571, -0.587558, 128.16804, 190.612538)" fill="none" stroke-linejoin="miter" d="M 2.447266 27.055924 C 25.129882 -5.015168 56.059584 -5.017567 95.237247 27.056063 " stroke="#3dcfb6" stroke-width="6" stroke-opacity="1" stroke-miterlimit="4"/><g clip-path="url(#581742e359)"><path stroke-linecap="butt" transform="matrix(-0.00729045, -0.747759, 0.747759, -0.00729045, 20.109162, 118.767072)" fill="none" stroke-linejoin="miter" d="M -0.00118271 2.998818 L 102.570965 3.001096 " stroke="#3dcfb6" stroke-width="6" stroke-opacity="1" stroke-miterlimit="4"/></g><path stroke-linecap="butt" transform="matrix(0, -0.747794, 0.747794, 0, 20.112448, 218.76751)" fill="none" stroke-linejoin="miter" d="M 0.00252094 2.999516 L 98.547569 2.999516 " stroke="#3dcfb6" stroke-width="6" stroke-opacity="1" stroke-miterlimit="4"/><path stroke-linecap="butt" transform="matrix(0.747794, 0, 0, 0.747794, 20.112541, 144.523621)" fill="none" stroke-linejoin="miter" d="M 0.000989407 2.998157 L 56.328117 2.998157 " stroke="#3dcfb6" stroke-width="6" stroke-opacity="1" stroke-miterlimit="4"/><path stroke-linecap="butt" transform="matrix(0.747794, 0, 0, 0.747794, 20.112541, 216.524216)" fill="none" stroke-linejoin="miter" d="M 0.000989407 3.002584 L 58.328793 3.002584 " stroke="#3dcfb6" stroke-width="6" stroke-opacity="1" stroke-miterlimit="4"/><g clip-path="url(#543e7f606f)"><path stroke-linecap="butt" transform="matrix(0.747794, 0, 0, 0.747794, 2.236241, 236.161684)" fill="none" stroke-linejoin="miter" d="M -0.00249499 3.001582 L 98.808962 3.001582 " stroke="#3dcfb6" stroke-width="6" stroke-opacity="1" stroke-miterlimit="4"/></g></svg>