<svg xmlns="http://www.w3.org/2000/svg" xmlns:xlink="http://www.w3.org/1999/xlink" width="1008" zoomAndPan="magnify" viewBox="0 0 756 342.749987" height="457" preserveAspectRatio="xMidYMid meet" version="1.0"><defs><g/><clipPath id="0cd5ca3d59"><path d="M 0.277344 41 L 121 41 L 121 146 L 0.277344 146 Z M 0.277344 41 " clip-rule="nonzero"/></clipPath><clipPath id="909864aab7"><path d="M 0.277344 61 L 102 61 L 102 143 L 0.277344 143 Z M 0.277344 61 " clip-rule="nonzero"/></clipPath><clipPath id="eaadbf643c"><path d="M 0.277344 90 L 103 90 L 103 185 L 0.277344 185 Z M 0.277344 90 " clip-rule="nonzero"/></clipPath><clipPath id="cb03cba26f"><path d="M 0.277344 59 L 48 59 L 48 188 L 0.277344 188 Z M 0.277344 59 " clip-rule="nonzero"/></clipPath><clipPath id="3e1c4bf912"><path d="M 0.277344 279 L 79 279 L 79 284 L 0.277344 284 Z M 0.277344 279 " clip-rule="nonzero"/></clipPath></defs><g fill="#ffffff" fill-opacity="1"><g transform="translate(130.82518, 167.262873)"><g><path d="M 47.742188 -100.042969 C 64.265625 -100.042969 76.941406 -95.710938 85.773438 -87.042969 C 94.621094 -78.363281 99.042969 -65.59375 99.042969 -48.742188 C 99.042969 -31.933594 94.621094 -19.179688 85.777344 -10.476562 C 76.945312 -1.785156 64.265625 2.5625 47.742188 2.5625 L 10.109375 2.5625 L 10.109375 -100.042969 Z M 47.742188 -94.921875 L 12.667969 -94.921875 L 12.667969 -97.484375 L 15.230469 -97.484375 L 15.230469 0 L 12.667969 0 L 12.667969 -2.5625 L 47.742188 -2.5625 C 62.867188 -2.5625 74.347656 -6.417969 82.1875 -14.128906 C 90.011719 -21.828125 93.921875 -33.367188 93.921875 -48.742188 C 93.921875 -64.160156 90.011719 -75.710938 82.1875 -83.386719 C 74.351562 -91.078125 62.871094 -94.921875 47.742188 -94.921875 Z M 46.609375 -18.761719 C 55.933594 -18.761719 62.832031 -21.070312 67.308594 -25.6875 C 71.804688 -30.324219 74.054688 -38.007812 74.054688 -48.742188 C 74.054688 -59.476562 71.804688 -67.160156 67.308594 -71.796875 C 62.832031 -76.414062 55.933594 -78.71875 46.609375 -78.71875 L 31.9375 -78.71875 L 31.9375 -81.28125 L 34.5 -81.28125 L 34.5 -16.203125 L 31.9375 -16.203125 L 31.9375 -18.761719 Z M 46.609375 -13.640625 L 29.378906 -13.640625 L 29.378906 -83.84375 L 46.609375 -83.84375 C 57.378906 -83.84375 65.503906 -81.015625 70.984375 -75.363281 C 76.445312 -69.730469 79.175781 -60.859375 79.175781 -48.742188 C 79.175781 -36.625 76.445312 -27.753906 70.984375 -22.121094 C 65.503906 -16.46875 57.378906 -13.640625 46.609375 -13.640625 Z M 46.609375 -13.640625 "/></g></g></g><g fill="#ffffff" fill-opacity="1"><g transform="translate(222.202916, 167.262873)"><g><path d="M 28.671875 3.960938 C 23.558594 3.960938 19.085938 3.003906 15.257812 1.089844 C 11.320312 -0.878906 8.289062 -3.773438 6.164062 -7.589844 C 4.082031 -11.332031 3.039062 -15.78125 3.039062 -20.9375 C 3.039062 -25.789062 4.105469 -29.898438 6.238281 -33.273438 C 8.363281 -36.640625 11.605469 -39.378906 15.957031 -41.480469 C 20.09375 -43.476562 25.4375 -45.007812 31.996094 -46.070312 C 36.234375 -46.753906 39.421875 -47.488281 41.554688 -48.277344 C 43.371094 -48.949219 44.527344 -49.613281 45.027344 -50.277344 C 45.484375 -50.890625 45.714844 -51.734375 45.714844 -52.808594 C 45.714844 -54.316406 45.230469 -55.4375 44.261719 -56.167969 C 43.074219 -57.066406 40.855469 -57.515625 37.605469 -57.515625 C 33.914062 -57.515625 30.402344 -56.695312 27.070312 -55.046875 C 23.671875 -53.367188 20.722656 -51.160156 18.230469 -48.417969 L 17.46875 -47.582031 L 13.628906 -47.582031 L 4.035156 -62.054688 L 5.367188 -63.527344 C 9.351562 -67.9375 14.203125 -71.375 19.925781 -73.832031 C 25.628906 -76.28125 31.832031 -77.507812 38.539062 -77.507812 C 48.957031 -77.507812 56.589844 -75.207031 61.441406 -70.601562 C 66.328125 -65.964844 68.773438 -59.476562 68.773438 -51.140625 L 68.773438 -19.203125 C 68.773438 -18.203125 68.921875 -17.53125 69.21875 -17.191406 C 69.433594 -16.949219 69.875 -16.828125 70.546875 -16.828125 C 71.347656 -16.828125 72.136719 -16.976562 72.914062 -17.265625 L 73.703125 -17.5625 L 77.117188 -16.589844 L 78.789062 -0.441406 L 77.480469 0.410156 C 76.203125 1.242188 74.507812 1.902344 72.390625 2.394531 C 70.378906 2.859375 68.183594 3.09375 65.8125 3.09375 C 60.882812 3.09375 56.964844 2.101562 54.0625 0.113281 C 51.097656 -1.917969 48.992188 -5.027344 47.753906 -9.207031 L 50.210938 -9.933594 L 49.964844 -7.386719 L 48.566406 -7.519531 L 48.808594 -10.070312 L 51.125 -8.976562 C 49.09375 -4.664062 46.167969 -1.421875 42.339844 0.757812 C 38.59375 2.894531 34.035156 3.960938 28.671875 3.960938 Z M 28.671875 -1.160156 C 33.132812 -1.160156 36.84375 -2.003906 39.808594 -3.691406 C 42.695312 -5.335938 44.921875 -7.824219 46.492188 -11.160156 L 47.257812 -12.789062 L 52.171875 -12.320312 L 52.664062 -10.664062 C 53.558594 -7.644531 54.988281 -5.460938 56.957031 -4.113281 C 58.988281 -2.722656 61.9375 -2.027344 65.8125 -2.027344 C 67.792969 -2.027344 69.601562 -2.214844 71.234375 -2.59375 C 72.761719 -2.949219 73.914062 -3.375 74.679688 -3.878906 L 76.082031 -1.734375 L 73.535156 -1.46875 L 72.199219 -14.339844 L 74.746094 -14.601562 L 74.042969 -12.140625 L 73.109375 -12.40625 L 73.8125 -14.871094 L 74.710938 -12.472656 C 73.355469 -11.964844 71.96875 -11.707031 70.546875 -11.707031 C 68.328125 -11.707031 66.605469 -12.410156 65.371094 -13.8125 C 64.226562 -15.117188 63.652344 -16.914062 63.652344 -19.203125 L 63.652344 -51.140625 C 63.652344 -58.011719 61.738281 -63.257812 57.914062 -66.886719 C 54.050781 -70.554688 47.59375 -72.386719 38.539062 -72.386719 C 32.535156 -72.386719 27.003906 -71.300781 21.949219 -69.128906 C 16.910156 -66.960938 12.652344 -63.953125 9.167969 -60.09375 L 7.269531 -61.8125 L 9.402344 -63.226562 L 17.136719 -51.558594 L 15.003906 -50.140625 L 15.003906 -52.703125 L 16.335938 -52.703125 L 16.335938 -50.140625 L 14.441406 -51.867188 C 17.371094 -55.082031 20.824219 -57.675781 24.804688 -59.640625 C 28.851562 -61.636719 33.117188 -62.636719 37.605469 -62.636719 C 42.003906 -62.636719 45.25 -61.84375 47.351562 -60.253906 C 49.675781 -58.496094 50.835938 -56.015625 50.835938 -52.808594 C 50.835938 -50.597656 50.265625 -48.726562 49.125 -47.207031 C 48.019531 -45.734375 46.089844 -44.492188 43.328125 -43.472656 C 40.882812 -42.570312 37.378906 -41.75 32.816406 -41.011719 C 26.75 -40.03125 21.871094 -38.648438 18.183594 -36.867188 C 14.710938 -35.191406 12.171875 -33.082031 10.566406 -30.539062 C 8.964844 -28 8.160156 -24.800781 8.160156 -20.9375 C 8.160156 -16.667969 8.988281 -13.050781 10.640625 -10.078125 C 12.25 -7.183594 14.550781 -4.988281 17.546875 -3.492188 C 20.65625 -1.9375 24.363281 -1.160156 28.671875 -1.160156 Z M 34.539062 -14.960938 C 38.042969 -14.960938 40.816406 -16.109375 42.863281 -18.40625 C 44.988281 -20.789062 46.046875 -24.210938 46.046875 -28.671875 L 46.046875 -36.140625 L 48.609375 -36.140625 L 48.082031 -33.632812 L 46.8125 -33.902344 L 47.34375 -36.40625 L 48.941406 -34.40625 C 47.59375 -33.328125 45.875 -32.441406 43.785156 -31.742188 C 41.859375 -31.101562 39.144531 -30.480469 35.636719 -29.882812 C 32.132812 -29.296875 29.691406 -28.367188 28.308594 -27.089844 C 27.101562 -25.976562 26.5 -24.300781 26.5 -22.070312 C 26.5 -19.6875 27.140625 -17.925781 28.429688 -16.789062 C 29.8125 -15.570312 31.851562 -14.960938 34.539062 -14.960938 Z M 34.539062 -9.839844 C 30.5625 -9.839844 27.394531 -10.878906 25.046875 -12.949219 C 22.601562 -15.101562 21.378906 -18.144531 21.378906 -22.070312 C 21.378906 -25.796875 22.527344 -28.722656 24.832031 -30.851562 C 26.964844 -32.820312 30.277344 -34.179688 34.773438 -34.929688 C 38.023438 -35.484375 40.488281 -36.042969 42.164062 -36.601562 C 43.675781 -37.105469 44.867188 -37.707031 45.742188 -38.40625 L 46.6875 -39.160156 L 51.167969 -38.21875 L 51.167969 -28.671875 C 51.167969 -22.910156 49.675781 -18.351562 46.6875 -15 C 43.621094 -11.5625 39.570312 -9.839844 34.539062 -9.839844 Z M 34.539062 -9.839844 "/></g></g></g><g fill="#ffffff" fill-opacity="1"><g transform="translate(286.910196, 167.262873)"><g><path d="M 8.042969 0 L 8.042969 -76.105469 L 30.898438 -76.105469 L 30.898438 -62.746094 L 28.339844 -62.746094 L 28.929688 -65.234375 L 30.332031 -64.902344 L 29.738281 -62.410156 L 27.492188 -63.640625 C 30.015625 -68.25 33.347656 -71.714844 37.484375 -74.042969 C 41.585938 -76.351562 46.425781 -77.507812 52.007812 -77.507812 C 61.28125 -77.507812 68.164062 -74.898438 72.652344 -69.683594 C 77.046875 -64.578125 79.242188 -57.289062 79.242188 -47.808594 L 79.242188 2.5625 L 55.648438 2.5625 L 55.648438 -45.542969 C 55.648438 -49.773438 54.894531 -52.722656 53.378906 -54.390625 C 51.933594 -55.984375 49.429688 -56.785156 45.875 -56.785156 C 41.367188 -56.785156 37.890625 -55.367188 35.445312 -52.535156 C 32.902344 -49.59375 31.632812 -44.773438 31.632812 -38.074219 L 31.632812 2.5625 L 8.042969 2.5625 Z M 13.164062 0 L 10.601562 0 L 10.601562 -2.5625 L 29.070312 -2.5625 L 29.070312 0 L 26.511719 0 L 26.511719 -38.074219 C 26.511719 -46.042969 28.195312 -51.980469 31.566406 -55.882812 C 35.035156 -59.898438 39.804688 -61.90625 45.875 -61.90625 C 50.941406 -61.90625 54.710938 -60.546875 57.171875 -57.832031 C 59.570312 -55.1875 60.769531 -51.089844 60.769531 -45.542969 L 60.769531 0 L 58.210938 0 L 58.210938 -2.5625 L 76.679688 -2.5625 L 76.679688 0 L 74.121094 0 L 74.121094 -47.808594 C 74.121094 -56.019531 72.335938 -62.199219 68.773438 -66.34375 C 65.304688 -70.371094 59.714844 -72.386719 52.007812 -72.386719 C 47.324219 -72.386719 43.316406 -71.453125 39.996094 -69.582031 C 36.710938 -67.730469 34.039062 -64.929688 31.984375 -61.179688 L 31.046875 -59.46875 L 25.777344 -60.722656 L 25.777344 -73.546875 L 28.339844 -73.546875 L 28.339844 -70.984375 L 10.601562 -70.984375 L 10.601562 -73.546875 L 13.164062 -73.546875 Z M 13.164062 0 "/></g></g></g><g fill="#ffffff" fill-opacity="1"><g transform="translate(360.21868, 167.262873)"><g><path d="M 19.804688 -79.789062 C 15.777344 -79.789062 12.472656 -81.039062 9.886719 -83.542969 C 7.277344 -86.066406 5.972656 -89.292969 5.972656 -93.214844 C 5.972656 -97.097656 7.277344 -100.300781 9.886719 -102.824219 C 12.472656 -105.328125 15.777344 -106.578125 19.804688 -106.578125 C 22.457031 -106.578125 24.839844 -106.011719 26.953125 -104.871094 C 29.105469 -103.714844 30.78125 -102.117188 31.976562 -100.085938 C 33.171875 -98.058594 33.765625 -95.769531 33.765625 -93.214844 C 33.765625 -90.667969 33.171875 -88.371094 31.984375 -86.328125 C 30.789062 -84.269531 29.109375 -82.65625 26.953125 -81.492188 C 24.839844 -80.355469 22.457031 -79.789062 19.804688 -79.789062 Z M 19.804688 -84.910156 C 21.597656 -84.910156 23.167969 -85.273438 24.523438 -86.003906 C 25.832031 -86.707031 26.84375 -87.675781 27.558594 -88.902344 C 28.28125 -90.148438 28.644531 -91.585938 28.644531 -93.214844 C 28.644531 -94.839844 28.285156 -96.261719 27.566406 -97.484375 C 26.851562 -98.695312 25.839844 -99.65625 24.523438 -100.363281 C 23.167969 -101.09375 21.597656 -101.457031 19.804688 -101.457031 C 17.160156 -101.457031 15.042969 -100.6875 13.449219 -99.144531 C 11.878906 -97.625 11.09375 -95.648438 11.09375 -93.214844 C 11.09375 -90.738281 11.878906 -88.742188 13.449219 -87.222656 C 15.042969 -85.679688 17.160156 -84.910156 19.804688 -84.910156 Z M 8.042969 0 L 8.042969 -76.105469 L 31.632812 -76.105469 L 31.632812 2.5625 L 8.042969 2.5625 Z M 13.164062 0 L 10.601562 0 L 10.601562 -2.5625 L 29.070312 -2.5625 L 29.070312 0 L 26.511719 0 L 26.511719 -73.546875 L 29.070312 -73.546875 L 29.070312 -70.984375 L 10.601562 -70.984375 L 10.601562 -73.546875 L 13.164062 -73.546875 Z M 13.164062 0 "/></g></g></g><g fill="#ffffff" fill-opacity="1"><g transform="translate(386.987254, 167.262873)"><g><path d="M 72.679688 -30.046875 L 25.40625 -30.046875 L 25.40625 -32.605469 L 27.957031 -32.820312 C 28.433594 -27.074219 29.992188 -22.96875 32.621094 -20.507812 C 35.242188 -18.054688 38.902344 -16.828125 43.609375 -16.828125 C 47.355469 -16.828125 50.339844 -17.496094 52.554688 -18.832031 C 54.753906 -20.152344 56.542969 -22.191406 57.921875 -24.949219 L 58.628906 -26.363281 L 62.363281 -26.363281 L 77.144531 -16.882812 L 76.203125 -14.855469 C 73.597656 -9.261719 69.671875 -4.730469 64.421875 -1.265625 C 59.148438 2.21875 52.210938 3.960938 43.609375 3.960938 C 35.585938 3.960938 28.625 2.417969 22.71875 -0.664062 C 16.710938 -3.800781 12.082031 -8.460938 8.835938 -14.644531 C 5.640625 -20.730469 4.039062 -28.09375 4.039062 -36.738281 C 4.039062 -45.535156 5.722656 -52.992188 9.09375 -59.113281 C 12.496094 -65.296875 17.113281 -69.917969 22.949219 -72.980469 C 28.699219 -76 35.140625 -77.507812 42.273438 -77.507812 C 53.382812 -77.507812 61.953125 -74.503906 67.984375 -68.492188 C 74.023438 -62.480469 77.039062 -53.785156 77.039062 -42.40625 C 77.039062 -38.433594 76.902344 -35.328125 76.621094 -33.089844 L 76.460938 -31.816406 L 73.359375 -30.046875 Z M 72.679688 -35.167969 L 72.679688 -32.605469 L 71.410156 -34.828125 L 72.808594 -35.628906 L 74.078125 -33.40625 L 71.539062 -33.722656 C 71.792969 -35.75 71.917969 -38.648438 71.917969 -42.40625 C 71.917969 -52.367188 69.402344 -59.851562 64.371094 -64.863281 C 59.335938 -69.878906 51.972656 -72.386719 42.273438 -72.386719 C 35.984375 -72.386719 30.332031 -71.074219 25.328125 -68.445312 C 20.402344 -65.859375 16.488281 -61.925781 13.578125 -56.640625 C 10.632812 -51.292969 9.160156 -44.660156 9.160156 -36.738281 C 9.160156 -28.9375 10.5625 -22.367188 13.367188 -17.027344 C 16.121094 -11.789062 20.027344 -7.847656 25.089844 -5.203125 C 30.253906 -2.507812 36.425781 -1.160156 43.609375 -1.160156 C 51.183594 -1.160156 57.183594 -2.621094 61.601562 -5.539062 C 66.042969 -8.472656 69.363281 -12.296875 71.558594 -17.015625 L 73.878906 -15.9375 L 72.496094 -13.78125 L 60.230469 -21.648438 L 61.609375 -23.804688 L 61.609375 -21.242188 L 60.210938 -21.242188 L 60.210938 -23.804688 L 62.5 -22.660156 C 60.679688 -19.015625 58.246094 -16.277344 55.195312 -14.441406 C 52.167969 -12.621094 48.304688 -11.707031 43.609375 -11.707031 C 37.554688 -11.707031 32.726562 -13.394531 29.121094 -16.765625 C 25.53125 -20.128906 23.441406 -25.335938 22.851562 -32.394531 L 22.621094 -35.167969 Z M 54.25 -44.460938 C 54.09375 -49.414062 53.027344 -52.929688 51.050781 -55.015625 C 49.132812 -57.039062 46.207031 -58.050781 42.273438 -58.050781 C 38.300781 -58.050781 35.191406 -56.953125 32.945312 -54.761719 C 30.605469 -52.480469 29.070312 -48.945312 28.335938 -44.152344 L 25.804688 -44.542969 L 25.804688 -47.101562 L 56.808594 -47.101562 L 56.808594 -44.542969 Z M 59.453125 -41.980469 L 22.820312 -41.980469 L 23.273438 -44.929688 C 24.183594 -50.851562 26.214844 -55.347656 29.367188 -58.425781 C 32.609375 -61.589844 36.910156 -63.171875 42.273438 -63.171875 C 47.675781 -63.171875 51.839844 -61.628906 54.769531 -58.539062 C 57.636719 -55.511719 59.171875 -50.871094 59.371094 -44.621094 Z M 59.453125 -41.980469 "/></g></g></g><g fill="#ffffff" fill-opacity="1"><g transform="translate(454.094864, 167.262873)"><g><path d="M 30.539062 3.960938 C 23.195312 3.960938 17.527344 1.914062 13.535156 -2.179688 C 9.5625 -6.253906 7.574219 -12.285156 7.574219 -20.269531 L 7.574219 -105.644531 L 31.164062 -105.644531 L 31.164062 -21.003906 C 31.164062 -19.375 31.433594 -18.238281 31.972656 -17.589844 C 32.394531 -17.082031 33.140625 -16.828125 34.207031 -16.828125 C 35.027344 -16.828125 35.917969 -16.972656 36.878906 -17.257812 L 37.59375 -17.46875 L 40.882812 -16.527344 L 42.957031 1.121094 L 41.390625 1.9375 C 40.140625 2.589844 38.546875 3.09375 36.605469 3.453125 C 34.761719 3.792969 32.738281 3.960938 30.539062 3.960938 Z M 30.539062 -1.160156 C 32.425781 -1.160156 34.140625 -1.300781 35.675781 -1.585938 C 37.113281 -1.847656 38.226562 -2.1875 39.023438 -2.605469 L 40.207031 -0.332031 L 37.664062 -0.0351562 L 35.996094 -14.238281 L 38.539062 -14.535156 L 37.835938 -12.074219 L 36.902344 -12.339844 L 37.605469 -14.800781 L 38.335938 -12.347656 C 36.898438 -11.921875 35.519531 -11.707031 34.207031 -11.707031 C 31.539062 -11.707031 29.480469 -12.578125 28.035156 -14.316406 C 26.707031 -15.914062 26.042969 -18.140625 26.042969 -21.003906 L 26.042969 -103.085938 L 28.605469 -103.085938 L 28.605469 -100.523438 L 10.136719 -100.523438 L 10.136719 -103.085938 L 12.695312 -103.085938 L 12.695312 -20.269531 C 12.695312 -13.675781 14.199219 -8.835938 17.203125 -5.753906 C 20.191406 -2.691406 24.636719 -1.160156 30.539062 -1.160156 Z M 30.539062 -1.160156 "/></g></g></g><g fill="#ffffff" fill-opacity="1"><g transform="translate(130.82518, 278.931414)"><g><path d="M 10.109375 0 L 10.109375 -100.042969 L 54.277344 -100.042969 C 60.648438 -100.042969 66.078125 -99.023438 70.570312 -96.980469 C 75.207031 -94.875 78.726562 -91.855469 81.132812 -87.917969 C 83.515625 -84.019531 84.707031 -79.449219 84.707031 -74.214844 C 84.707031 -69.40625 83.53125 -65.148438 81.175781 -61.4375 C 78.835938 -57.757812 75.503906 -54.808594 71.179688 -52.597656 L 70.011719 -54.875 L 72.574219 -54.875 L 72.574219 -53.476562 L 70.011719 -53.476562 L 70.660156 -55.953125 C 77.347656 -54.210938 82.535156 -51 86.226562 -46.328125 C 89.925781 -41.640625 91.777344 -35.933594 91.777344 -29.207031 C 91.777344 -19.109375 88.683594 -11.273438 82.496094 -5.699219 C 76.386719 -0.191406 67.46875 2.5625 55.742188 2.5625 L 10.109375 2.5625 Z M 15.230469 0 L 12.667969 0 L 12.667969 -2.5625 L 55.742188 -2.5625 C 66.15625 -2.5625 73.929688 -4.875 79.066406 -9.503906 C 84.125 -14.0625 86.65625 -20.628906 86.65625 -29.207031 C 86.65625 -34.746094 85.171875 -39.398438 82.207031 -43.15625 C 79.226562 -46.929688 74.945312 -49.542969 69.367188 -51 L 67.453125 -51.496094 L 67.453125 -56.441406 L 68.847656 -57.15625 C 72.34375 -58.945312 75.011719 -61.289062 76.851562 -64.183594 C 78.675781 -67.054688 79.585938 -70.398438 79.585938 -74.214844 C 79.585938 -78.488281 78.644531 -82.167969 76.761719 -85.246094 C 74.902344 -88.289062 72.132812 -90.648438 68.453125 -92.320312 C 64.632812 -94.054688 59.90625 -94.921875 54.277344 -94.921875 L 12.667969 -94.921875 L 12.667969 -97.484375 L 15.230469 -97.484375 Z M 50.277344 -61.171875 C 54.109375 -61.171875 56.90625 -61.964844 58.664062 -63.546875 C 60.34375 -65.0625 61.183594 -67.460938 61.183594 -70.746094 C 61.183594 -74.125 60.351562 -76.574219 58.6875 -78.085938 C 56.953125 -79.664062 54.148438 -80.453125 50.277344 -80.453125 L 31.9375 -80.453125 L 31.9375 -83.015625 L 34.5 -83.015625 L 34.5 -58.609375 L 31.9375 -58.609375 L 31.9375 -61.171875 Z M 50.277344 -56.050781 L 29.378906 -56.050781 L 29.378906 -85.574219 L 50.277344 -85.574219 C 55.46875 -85.574219 59.421875 -84.34375 62.132812 -81.875 C 64.914062 -79.34375 66.304688 -75.636719 66.304688 -70.746094 C 66.304688 -65.941406 64.902344 -62.273438 62.089844 -59.742188 C 59.359375 -57.28125 55.421875 -56.050781 50.277344 -56.050781 Z M 53.808594 -17.828125 C 58.460938 -17.828125 61.871094 -18.8125 64.039062 -20.78125 C 66.136719 -22.6875 67.183594 -25.671875 67.183594 -29.738281 C 67.183594 -33.832031 66.136719 -36.832031 64.035156 -38.75 C 61.867188 -40.726562 58.460938 -41.714844 53.808594 -41.714844 L 31.9375 -41.714844 L 31.9375 -44.273438 L 34.5 -44.273438 L 34.5 -15.269531 L 31.9375 -15.269531 L 31.9375 -17.828125 Z M 53.808594 -12.707031 L 29.378906 -12.707031 L 29.378906 -46.835938 L 53.808594 -46.835938 C 59.785156 -46.835938 64.34375 -45.402344 67.488281 -42.53125 C 70.699219 -39.601562 72.304688 -35.335938 72.304688 -29.738281 C 72.304688 -24.160156 70.699219 -19.910156 67.484375 -16.992188 C 64.339844 -14.136719 59.78125 -12.707031 53.808594 -12.707031 Z M 53.808594 -12.707031 "/></g></g></g><g fill="#ffffff" fill-opacity="1"><g transform="translate(213.334983, 278.931414)"><g><path d="M 33.671875 3.960938 C 24.628906 3.960938 17.882812 1.414062 13.4375 -3.683594 C 9.085938 -8.679688 6.90625 -15.71875 6.90625 -24.804688 L 6.90625 -76.105469 L 30.5 -76.105469 L 30.5 -27.136719 C 30.5 -23.324219 31.234375 -20.628906 32.707031 -19.050781 C 34.136719 -17.527344 36.503906 -16.761719 39.808594 -16.761719 C 44.128906 -16.761719 47.457031 -18.140625 49.789062 -20.890625 C 52.230469 -23.769531 53.449219 -28.496094 53.449219 -35.074219 L 53.449219 -76.105469 L 77.039062 -76.105469 L 77.039062 2.5625 L 54.183594 2.5625 L 54.183594 -10.800781 L 56.742188 -10.800781 L 56.152344 -8.3125 L 54.75 -8.644531 L 55.34375 -11.136719 L 57.578125 -9.886719 C 55.003906 -5.273438 51.824219 -1.8125 48.039062 0.488281 C 44.230469 2.804688 39.441406 3.960938 33.671875 3.960938 Z M 33.671875 -1.160156 C 38.484375 -1.160156 42.386719 -2.070312 45.378906 -3.886719 C 48.394531 -5.722656 50.96875 -8.554688 53.105469 -12.382812 L 54.050781 -14.074219 L 59.304688 -12.824219 L 59.304688 0 L 56.742188 0 L 56.742188 -2.5625 L 74.480469 -2.5625 L 74.480469 0 L 71.917969 0 L 71.917969 -73.546875 L 74.480469 -73.546875 L 74.480469 -70.984375 L 56.011719 -70.984375 L 56.011719 -73.546875 L 58.570312 -73.546875 L 58.570312 -35.074219 C 58.570312 -27.246094 56.945312 -21.414062 53.695312 -17.582031 C 50.339844 -13.621094 45.710938 -11.640625 39.808594 -11.640625 C 35.019531 -11.640625 31.410156 -12.945312 28.96875 -15.554688 C 26.574219 -18.113281 25.378906 -21.972656 25.378906 -27.136719 L 25.378906 -73.546875 L 27.9375 -73.546875 L 27.9375 -70.984375 L 9.46875 -70.984375 L 9.46875 -73.546875 L 12.027344 -73.546875 L 12.027344 -24.804688 C 12.027344 -17 13.785156 -11.082031 17.300781 -7.050781 C 20.722656 -3.125 26.179688 -1.160156 33.671875 -1.160156 Z M 33.671875 -1.160156 "/></g></g></g><g fill="#ffffff" fill-opacity="1"><g transform="translate(285.576661, 278.931414)"><g><path d="M 8.042969 0 L 8.042969 -76.105469 L 30.898438 -76.105469 L 30.898438 -63.679688 L 28.339844 -63.679688 L 28.816406 -66.195312 L 30.21875 -65.925781 L 29.738281 -63.410156 L 27.550781 -64.738281 C 30.175781 -69.070312 33.289062 -72.277344 36.890625 -74.363281 C 40.507812 -76.457031 45.0625 -77.507812 50.542969 -77.507812 C 56.605469 -77.507812 61.539062 -76.269531 65.34375 -73.792969 C 69.195312 -71.28125 71.996094 -67.652344 73.75 -62.894531 L 71.347656 -62.011719 L 71.347656 -64.570312 L 72.746094 -64.570312 L 72.746094 -62.011719 L 70.46875 -63.183594 C 72.960938 -68.023438 76.210938 -71.621094 80.214844 -73.984375 C 84.191406 -76.332031 89.082031 -77.507812 94.882812 -77.507812 C 103.269531 -77.507812 109.621094 -75.101562 113.941406 -70.289062 C 118.191406 -65.558594 120.316406 -58.621094 120.316406 -49.476562 L 120.316406 2.5625 L 96.722656 2.5625 L 96.722656 -47.140625 C 96.722656 -50.808594 96.09375 -53.355469 94.832031 -54.78125 C 93.652344 -56.117188 91.582031 -56.785156 88.617188 -56.785156 C 84.402344 -56.785156 81.285156 -55.429688 79.265625 -52.726562 C 77.070312 -49.792969 75.972656 -45.21875 75.972656 -39.007812 L 75.972656 2.5625 L 52.382812 2.5625 L 52.382812 -47.140625 C 52.382812 -50.800781 51.746094 -53.34375 50.46875 -54.769531 C 49.265625 -56.113281 47.179688 -56.785156 44.207031 -56.785156 C 40.246094 -56.785156 37.191406 -55.5 35.035156 -52.929688 C 32.765625 -50.226562 31.632812 -45.71875 31.632812 -39.40625 L 31.632812 2.5625 L 8.042969 2.5625 Z M 13.164062 0 L 10.601562 0 L 10.601562 -2.5625 L 29.070312 -2.5625 L 29.070312 0 L 26.511719 0 L 26.511719 -39.40625 C 26.511719 -46.964844 28.042969 -52.566406 31.109375 -56.222656 C 34.289062 -60.011719 38.65625 -61.90625 44.207031 -61.90625 C 48.703125 -61.90625 52.0625 -60.664062 54.285156 -58.183594 C 56.429688 -55.789062 57.503906 -52.105469 57.503906 -47.140625 L 57.503906 0 L 54.941406 0 L 54.941406 -2.5625 L 73.414062 -2.5625 L 73.414062 0 L 70.851562 0 L 70.851562 -39.007812 C 70.851562 -46.355469 72.289062 -51.949219 75.164062 -55.792969 C 78.207031 -59.867188 82.691406 -61.90625 88.617188 -61.90625 C 93.121094 -61.90625 96.46875 -60.660156 98.667969 -58.171875 C 100.785156 -55.777344 101.84375 -52.101562 101.84375 -47.140625 L 101.84375 0 L 99.285156 0 L 99.285156 -2.5625 L 117.753906 -2.5625 L 117.753906 0 L 115.195312 0 L 115.195312 -49.476562 C 115.195312 -57.3125 113.507812 -63.109375 110.132812 -66.867188 C 106.828125 -70.546875 101.746094 -72.386719 94.882812 -72.386719 C 90.015625 -72.386719 85.992188 -71.449219 82.816406 -69.574219 C 79.660156 -67.714844 77.0625 -64.800781 75.023438 -60.839844 L 74.308594 -59.449219 L 69.5625 -59.449219 L 68.945312 -61.125 C 67.582031 -64.816406 65.453125 -67.609375 62.546875 -69.5 C 59.59375 -71.425781 55.59375 -72.386719 50.542969 -72.386719 C 45.976562 -72.386719 42.28125 -71.566406 39.457031 -69.929688 C 36.613281 -68.28125 34.101562 -65.667969 31.929688 -62.082031 L 31.003906 -60.5625 L 25.777344 -61.558594 L 25.777344 -73.546875 L 28.339844 -73.546875 L 28.339844 -70.984375 L 10.601562 -70.984375 L 10.601562 -73.546875 L 13.164062 -73.546875 Z M 13.164062 0 "/></g></g></g><g fill="#ffffff" fill-opacity="1"><g transform="translate(399.957659, 278.931414)"><g><path d="M 51.410156 3.960938 C 46.3125 3.960938 41.839844 2.992188 37.988281 1.054688 C 34.089844 -0.910156 30.867188 -3.839844 28.328125 -7.738281 L 30.472656 -9.136719 L 30.953125 -6.621094 L 29.550781 -6.351562 L 29.070312 -8.867188 L 31.632812 -8.867188 L 31.632812 2.5625 L 8.042969 2.5625 L 8.042969 -105.644531 L 31.632812 -105.644531 L 31.632812 -64.878906 L 29.070312 -64.878906 L 29.550781 -67.394531 L 30.953125 -67.128906 L 30.472656 -64.613281 L 28.394531 -66.109375 C 31.179688 -69.96875 34.484375 -72.835938 38.3125 -74.710938 C 42.113281 -76.574219 46.613281 -77.507812 51.808594 -77.507812 C 58.257812 -77.507812 63.914062 -75.976562 68.777344 -72.914062 C 73.667969 -69.832031 77.460938 -65.195312 80.160156 -59 C 82.792969 -52.960938 84.109375 -45.542969 84.109375 -36.738281 C 84.109375 -28.015625 82.742188 -20.628906 80.015625 -14.582031 C 77.222656 -8.398438 73.339844 -3.757812 68.367188 -0.660156 C 63.417969 2.421875 57.765625 3.960938 51.410156 3.960938 Z M 51.410156 -1.160156 C 56.789062 -1.160156 61.539062 -2.441406 65.660156 -5.007812 C 69.753906 -7.554688 72.980469 -11.449219 75.347656 -16.691406 C 77.773438 -22.066406 78.988281 -28.75 78.988281 -36.738281 C 78.988281 -44.832031 77.8125 -51.566406 75.464844 -56.953125 C 73.1875 -62.183594 70.046875 -66.058594 66.046875 -68.578125 C 62.019531 -71.117188 57.273438 -72.386719 51.808594 -72.386719 C 47.40625 -72.386719 43.65625 -71.628906 40.566406 -70.113281 C 37.503906 -68.613281 34.832031 -66.277344 32.546875 -63.113281 L 31.59375 -61.792969 L 26.511719 -62.757812 L 26.511719 -103.085938 L 29.070312 -103.085938 L 29.070312 -100.523438 L 10.601562 -100.523438 L 10.601562 -103.085938 L 13.164062 -103.085938 L 13.164062 0 L 10.601562 0 L 10.601562 -2.5625 L 29.070312 -2.5625 L 29.070312 0 L 26.511719 0 L 26.511719 -10.988281 L 31.679688 -11.972656 L 32.617188 -10.535156 C 34.65625 -7.40625 37.214844 -5.070312 40.292969 -3.519531 C 43.417969 -1.945312 47.125 -1.160156 51.410156 -1.160156 Z M 45.808594 -16.828125 C 50.402344 -16.828125 53.863281 -18.316406 56.195312 -21.285156 C 58.675781 -24.445312 59.917969 -29.59375 59.917969 -36.738281 C 59.917969 -43.929688 58.675781 -49.101562 56.195312 -52.261719 C 53.863281 -55.230469 50.402344 -56.714844 45.808594 -56.714844 C 41.417969 -56.714844 37.957031 -55.164062 35.421875 -52.058594 C 32.761719 -48.796875 31.433594 -43.6875 31.433594 -36.738281 C 31.433594 -29.792969 32.761719 -24.699219 35.417969 -21.460938 C 37.953125 -18.375 41.414062 -16.828125 45.808594 -16.828125 Z M 45.808594 -11.707031 C 39.800781 -11.707031 35.015625 -13.875 31.460938 -18.210938 C 28.027344 -22.398438 26.3125 -28.574219 26.3125 -36.738281 C 26.3125 -44.90625 28.027344 -51.089844 31.453125 -55.292969 C 35.011719 -59.65625 39.796875 -61.839844 45.808594 -61.839844 C 52.0625 -61.839844 56.867188 -59.699219 60.222656 -55.425781 C 63.433594 -51.335938 65.039062 -45.109375 65.039062 -36.738281 C 65.039062 -28.414062 63.433594 -22.210938 60.222656 -18.121094 C 56.867188 -13.847656 52.0625 -11.707031 45.808594 -11.707031 Z M 45.808594 -11.707031 "/></g></g></g><g fill="#ffffff" fill-opacity="1"><g transform="translate(475.199769, 278.931414)"><g><path d="M 33.671875 3.960938 C 24.628906 3.960938 17.882812 1.414062 13.4375 -3.683594 C 9.085938 -8.679688 6.90625 -15.71875 6.90625 -24.804688 L 6.90625 -76.105469 L 30.5 -76.105469 L 30.5 -27.136719 C 30.5 -23.324219 31.234375 -20.628906 32.707031 -19.050781 C 34.136719 -17.527344 36.503906 -16.761719 39.808594 -16.761719 C 44.128906 -16.761719 47.457031 -18.140625 49.789062 -20.890625 C 52.230469 -23.769531 53.449219 -28.496094 53.449219 -35.074219 L 53.449219 -76.105469 L 77.039062 -76.105469 L 77.039062 2.5625 L 54.183594 2.5625 L 54.183594 -10.800781 L 56.742188 -10.800781 L 56.152344 -8.3125 L 54.75 -8.644531 L 55.34375 -11.136719 L 57.578125 -9.886719 C 55.003906 -5.273438 51.824219 -1.8125 48.039062 0.488281 C 44.230469 2.804688 39.441406 3.960938 33.671875 3.960938 Z M 33.671875 -1.160156 C 38.484375 -1.160156 42.386719 -2.070312 45.378906 -3.886719 C 48.394531 -5.722656 50.96875 -8.554688 53.105469 -12.382812 L 54.050781 -14.074219 L 59.304688 -12.824219 L 59.304688 0 L 56.742188 0 L 56.742188 -2.5625 L 74.480469 -2.5625 L 74.480469 0 L 71.917969 0 L 71.917969 -73.546875 L 74.480469 -73.546875 L 74.480469 -70.984375 L 56.011719 -70.984375 L 56.011719 -73.546875 L 58.570312 -73.546875 L 58.570312 -35.074219 C 58.570312 -27.246094 56.945312 -21.414062 53.695312 -17.582031 C 50.339844 -13.621094 45.710938 -11.640625 39.808594 -11.640625 C 35.019531 -11.640625 31.410156 -12.945312 28.96875 -15.554688 C 26.574219 -18.113281 25.378906 -21.972656 25.378906 -27.136719 L 25.378906 -73.546875 L 27.9375 -73.546875 L 27.9375 -70.984375 L 9.46875 -70.984375 L 9.46875 -73.546875 L 12.027344 -73.546875 L 12.027344 -24.804688 C 12.027344 -17 13.785156 -11.082031 17.300781 -7.050781 C 20.722656 -3.125 26.179688 -1.160156 33.671875 -1.160156 Z M 33.671875 -1.160156 "/></g></g></g><g fill="#ffffff" fill-opacity="1"><g transform="translate(547.441435, 278.931414)"><g><path d="M 42.875 3.960938 C 35.328125 3.960938 28.632812 2.378906 22.785156 -0.78125 C 16.867188 -3.980469 12.253906 -8.675781 8.945312 -14.863281 C 5.675781 -20.972656 4.039062 -28.265625 4.039062 -36.738281 C 4.039062 -45.257812 5.675781 -52.574219 8.945312 -58.683594 C 12.25 -64.867188 16.839844 -69.5625 22.710938 -72.761719 C 28.515625 -75.925781 35.125 -77.507812 42.539062 -77.507812 C 50.746094 -77.507812 57.53125 -75.992188 62.890625 -72.957031 C 68.386719 -69.847656 72.335938 -65.195312 74.734375 -59.003906 L 75.453125 -57.152344 L 60.5 -46.449219 L 56.601562 -46.449219 L 55.929688 -47.984375 C 54.609375 -51.011719 52.9375 -53.230469 50.910156 -54.644531 C 48.929688 -56.027344 46.140625 -56.714844 42.539062 -56.714844 C 38.023438 -56.714844 34.53125 -55.1875 32.066406 -52.132812 C 29.464844 -48.914062 28.164062 -43.78125 28.164062 -36.738281 C 28.164062 -29.789062 29.484375 -24.695312 32.125 -21.453125 C 34.632812 -18.371094 38.21875 -16.828125 42.875 -16.828125 C 46.289062 -16.828125 49.15625 -17.730469 51.472656 -19.527344 C 53.816406 -21.34375 55.511719 -24.015625 56.554688 -27.53125 L 57.046875 -29.191406 L 60.953125 -29.5625 L 76.59375 -20.984375 L 76 -19 C 73.976562 -12.257812 70.226562 -6.75 64.753906 -2.480469 C 59.246094 1.8125 51.953125 3.960938 42.875 3.960938 Z M 42.875 -1.160156 C 50.777344 -1.160156 57.019531 -2.945312 61.605469 -6.519531 C 66.21875 -10.121094 69.382812 -14.769531 71.09375 -20.472656 L 73.546875 -19.738281 L 72.316406 -17.492188 L 59.179688 -24.691406 L 60.410156 -26.9375 L 60.652344 -24.390625 L 59.253906 -24.253906 L 59.011719 -26.804688 L 61.464844 -26.078125 C 60.109375 -21.503906 57.824219 -17.972656 54.613281 -15.480469 C 51.371094 -12.964844 47.460938 -11.707031 42.875 -11.707031 C 36.59375 -11.707031 31.6875 -13.878906 28.152344 -18.21875 C 24.746094 -22.402344 23.042969 -28.574219 23.042969 -36.738281 C 23.042969 -44.988281 24.722656 -51.191406 28.078125 -55.351562 C 31.570312 -59.675781 36.390625 -61.839844 42.539062 -61.839844 C 47.210938 -61.839844 50.976562 -60.839844 53.839844 -58.84375 C 56.660156 -56.878906 58.921875 -53.941406 60.625 -50.03125 L 58.277344 -49.007812 L 58.277344 -51.570312 L 59.675781 -51.570312 L 59.675781 -49.007812 L 58.1875 -51.089844 L 70.855469 -60.160156 L 72.347656 -58.078125 L 69.957031 -57.152344 C 68 -62.207031 64.804688 -65.988281 60.367188 -68.5 C 55.789062 -71.089844 49.847656 -72.386719 42.539062 -72.386719 C 35.996094 -72.386719 30.203125 -71.011719 25.164062 -68.265625 C 20.1875 -65.550781 16.285156 -61.554688 13.460938 -56.269531 C 10.59375 -50.914062 9.160156 -44.402344 9.160156 -36.738281 C 9.160156 -29.121094 10.59375 -22.632812 13.460938 -17.277344 C 16.285156 -11.996094 20.207031 -8 25.222656 -5.285156 C 30.308594 -2.535156 36.195312 -1.160156 42.875 -1.160156 Z M 42.875 -1.160156 "/></g></g></g><path stroke-linecap="butt" transform="matrix(0, -0.749453, 0.749453, 0, 1.54073, 283.9081)" fill="none" stroke-linejoin="miter" d="M 0.00246893 2.999963 L 291.610868 2.999963 " stroke="#3dcfb6" stroke-width="6" stroke-opacity="1" stroke-miterlimit="4"/><g clip-path="url(#0cd5ca3d59)"><path stroke-linecap="butt" transform="matrix(0.653015, 0.367767, -0.367767, 0.653015, 14.924151, 42.75237)" fill="none" stroke-linejoin="miter" d="M 1.702821 37.369213 C 68.196535 -8.453532 115.553185 -8.456798 143.770786 37.366515 " stroke="#3dcfb6" stroke-width="6" stroke-opacity="1" stroke-miterlimit="4"/></g><path stroke-linecap="butt" transform="matrix(-0.341434, 0.66716, -0.66716, -0.341434, 105.189882, 121.12443)" fill="none" stroke-linejoin="miter" d="M 1.497897 14.594753 C 28.358058 -0.867042 55.216313 -0.864707 82.074925 14.594746 " stroke="#3dcfb6" stroke-width="6" stroke-opacity="1" stroke-miterlimit="4"/><path stroke-linecap="butt" transform="matrix(0.572697, 0.483423, -0.483423, 0.572697, 81.789856, 152.187763)" fill="none" stroke-linejoin="miter" d="M 2.095935 30.806428 C 40.086221 -6.268236 78.078952 -6.267143 116.070766 30.805726 " stroke="#3dcfb6" stroke-width="6" stroke-opacity="1" stroke-miterlimit="4"/><path stroke-linecap="butt" transform="matrix(-0.535939, 0.523879, -0.523879, -0.535939, 147.794222, 238.61176)" fill="none" stroke-linejoin="miter" d="M 1.937208 25.549596 C 37.406042 -4.517113 72.877941 -4.515321 108.345451 25.547686 " stroke="#3dcfb6" stroke-width="6" stroke-opacity="1" stroke-miterlimit="4"/><g clip-path="url(#909864aab7)"><path stroke-linecap="butt" transform="matrix(0.661267, 0.352713, -0.352713, 0.661267, 26.807765, 72.30882)" fill="none" stroke-linejoin="miter" d="M 1.584131 21.673031 C 41.635514 -3.222492 69.931263 -3.222205 86.475974 21.671438 " stroke="#3dcfb6" stroke-width="6" stroke-opacity="1" stroke-miterlimit="4"/></g><g clip-path="url(#eaadbf643c)"><path stroke-linecap="butt" transform="matrix(-0.588861, 0.463597, -0.463597, -0.588861, 90.627426, 131.486853)" fill="none" stroke-linejoin="miter" d="M 2.504292 27.621143 C 24.076884 -5.206676 55.004858 -5.209591 95.293181 27.622943 " stroke="#3dcfb6" stroke-width="6" stroke-opacity="1" stroke-miterlimit="4"/></g><path stroke-linecap="butt" transform="matrix(0.649471, 0.37399, -0.37399, 0.649471, 66.993847, 175.172543)" fill="none" stroke-linejoin="miter" d="M 1.595886 21.670515 C 41.284018 -3.222325 69.32224 -3.224831 85.720269 21.669428 " stroke="#3dcfb6" stroke-width="6" stroke-opacity="1" stroke-miterlimit="4"/><path stroke-linecap="butt" transform="matrix(-0.588861, 0.463597, -0.463597, -0.588861, 128.506865, 233.785719)" fill="none" stroke-linejoin="miter" d="M 2.450767 27.058334 C 25.129786 -5.017825 56.05776 -5.020739 95.23556 27.05691 " stroke="#3dcfb6" stroke-width="6" stroke-opacity="1" stroke-miterlimit="4"/><g clip-path="url(#cb03cba26f)"><path stroke-linecap="butt" transform="matrix(-0.00730663, -0.749418, 0.749418, -0.00730663, 20.208228, 161.780851)" fill="none" stroke-linejoin="miter" d="M 0.00148594 3.000748 L 102.570714 2.999994 " stroke="#3dcfb6" stroke-width="6" stroke-opacity="1" stroke-miterlimit="4"/></g><path stroke-linecap="butt" transform="matrix(0, -0.749453, 0.749453, 0, 20.211522, 262.003163)" fill="none" stroke-linejoin="miter" d="M -0.000991139 3.001409 L 98.544801 3.001409 " stroke="#3dcfb6" stroke-width="6" stroke-opacity="1" stroke-miterlimit="4"/><path stroke-linecap="butt" transform="matrix(0.749453, 0.000000000000000756, -0.000000000000000756, 0.749453, 20.211615, 187.59457)" fill="none" stroke-linejoin="miter" d="M -0.000904347 3.001095 L 56.326614 3.001095 " stroke="#3dcfb6" stroke-width="6" stroke-opacity="1" stroke-miterlimit="4"/><path stroke-linecap="butt" transform="matrix(0.749453, 0, 0, 0.749453, 20.211615, 259.75489)" fill="none" stroke-linejoin="miter" d="M -0.000904347 3.000876 L 58.328072 3.000876 " stroke="#3dcfb6" stroke-width="6" stroke-opacity="1" stroke-miterlimit="4"/><g clip-path="url(#3e1c4bf912)"><path stroke-linecap="butt" transform="matrix(0.749453, 0, 0, 0.749453, 2.295651, 279.435943)" fill="none" stroke-linejoin="miter" d="M 0.00163308 2.999053 L 98.808032 2.999053 " stroke="#3dcfb6" stroke-width="6" stroke-opacity="1" stroke-miterlimit="4"/></g></svg>