<svg xmlns="http://www.w3.org/2000/svg" xmlns:xlink="http://www.w3.org/1999/xlink" width="176" zoomAndPan="magnify" viewBox="0 0 132 214.499994" height="286" preserveAspectRatio="xMidYMid meet" version="1.0"><defs><clipPath id="fe4de0d9a8"><path d="M 0.152344 102.511719 L 131.84375 102.511719 L 131.84375 214 L 0.152344 214 Z M 0.152344 102.511719 " clip-rule="nonzero"/></clipPath><clipPath id="6664b5ec85"><path d="M 128.476562 176.816406 C 130.511719 171.101562 131.847656 164.605469 131.847656 158.226562 C 131.847656 151.847656 130.703125 145.710938 128.667969 140.054688 C 128.601562 139.933594 128.601562 139.816406 128.539062 139.695312 C 120.398438 118.457031 98.902344 102.8125 74.046875 102.511719 L 0.152344 102.511719 L 0.152344 214 L 73.992188 214 C 99.03125 213.699219 120.527344 198.296875 128.476562 176.816406 Z M 128.476562 176.816406 " clip-rule="nonzero"/></clipPath><clipPath id="913704e204"><path d="M 0.152344 0 L 93.683594 0 L 93.683594 111.488281 L 0.152344 111.488281 Z M 0.152344 0 " clip-rule="nonzero"/></clipPath><clipPath id="d2b735e382"><path d="M 90.316406 74.308594 C 92.351562 68.589844 93.683594 62.09375 93.683594 55.714844 C 93.683594 49.335938 92.539062 43.199219 90.503906 37.542969 C 90.441406 37.425781 90.441406 37.304688 90.378906 37.183594 C 82.238281 15.945312 60.742188 0.300781 36.734375 0 L 0.152344 0 L 0.152344 111.488281 L 36.707031 111.488281 C 60.871094 111.1875 82.367188 95.785156 90.316406 74.308594 Z M 90.316406 74.308594 " clip-rule="nonzero"/></clipPath></defs><g clip-path="url(#fe4de0d9a8)"><g clip-path="url(#6664b5ec85)"><path stroke-linecap="butt" transform="matrix(0, -0.748256, 0.748256, 0, 0.15349, 214.001148)" fill="none" stroke-linejoin="miter" d="M 49.695229 171.49627 C 57.332783 174.216137 66.014432 176.00154 74.539467 176.00154 C 83.064501 176.00154 91.265866 174.471941 98.825113 171.752073 C 98.986948 171.663325 99.143562 171.663325 99.305397 171.579798 C 127.689116 160.700329 148.597116 131.972059 148.999092 98.754181 L 148.999092 -0.00153218 L 0.00153408 -0.00153218 L 0.00153408 98.681094 C 0.403511 132.144335 20.987841 160.872605 49.695229 171.49627 Z M 49.695229 171.49627 " stroke="#3dcfb6" stroke-width="52" stroke-opacity="1" stroke-miterlimit="4"/></g></g><g clip-path="url(#913704e204)"><g clip-path="url(#d2b735e382)"><path stroke-linecap="butt" transform="matrix(0, -0.748256, 0.748256, 0, 0.15349, 111.490109)" fill="none" stroke-linejoin="miter" d="M 49.690917 120.497456 C 57.333691 123.217324 66.01534 124.997505 74.540375 124.997505 C 83.065409 124.997505 91.266774 123.467906 98.826021 120.748039 C 98.982635 120.664512 99.14447 120.664512 99.306305 120.580984 C 127.690024 109.701515 148.598023 80.973245 149 48.88821 L 149 -0.00153218 L 0.00244203 -0.00153218 L 0.00244203 48.851667 C 0.404419 81.145521 20.988749 109.873791 49.690917 120.497456 Z M 49.690917 120.497456 " stroke="#3dcfb6" stroke-width="50" stroke-opacity="1" stroke-miterlimit="4"/></g></g></svg>